<svg xmlns="http://www.w3.org/2000/svg" viewBox="0 0 520 100" fill="none">
  <!-- Left vertical bar -->
  <rect x="0" y="0" width="12" height="100" fill="#2d2d2d"/>

  <!-- Main square block -->
  <rect x="16" y="8" width="58" height="84" fill="#2d2d2d"/>

  <!-- Right vertical bar -->
  <rect x="78" y="0" width="12" height="100" fill="#2d2d2d"/>

  <!-- Stylized B - upper curve (white cutout) -->
  <path d="M30 18 h20 q18 0 18 16 q0 16 -18 16 h-20 z" fill="#2d2d2d"/>
  <path d="M34 22 h14 q14 0 14 12 q0 12 -14 12 h-14 z" fill="white"/>

  <!-- Stylized B - lower curve (white cutout) -->
  <path d="M30 50 h22 q20 0 20 18 q0 18 -20 18 h-22 z" fill="#2d2d2d"/>
  <path d="M34 54 h16 q16 0 16 14 q0 14 -16 14 h-16 z" fill="white"/>

  <!-- B vertical stem -->
  <rect x="30" y="18" width="8" height="68" fill="#2d2d2d"/>

  <!-- Arrow pointing right -->
  <polygon points="90,50 110,35 110,44 125,44 125,56 110,56 110,65" fill="#2d2d2d"/>

  <!-- BLACKLINE text -->
  <text x="140" y="48" font-family="Georgia, 'Times New Roman', serif" font-size="36" font-weight="bold" fill="#1a1a1a" letter-spacing="4">BLACKLINE</text>

  <!-- STRATEGY PARTNERS, INC. -->
  <text x="140" y="70" font-family="Georgia, 'Times New Roman', serif" font-size="16" fill="#1a1a1a" letter-spacing="2">STRATEGY PARTNERS, INC.</text>

  <!-- CLARITY. STRATEGY. MOMENTUM. -->
  <text x="140" y="88" font-family="Georgia, 'Times New Roman', serif" font-size="11" fill="#1a1a1a" letter-spacing="3" font-style="italic">CLARITY. STRATEGY. MOMENTUM.</text>
</svg>
